<?xml version="1.0" encoding="UTF-8"?>
<svg id="Calque_1" data-name="Calque 1" xmlns="http://www.w3.org/2000/svg" viewBox="0 0 500 500">
  <defs>
    <style>
      .cls-1 {
        fill: #3dad5c;
      }

      .cls-1, .cls-2, .cls-3, .cls-4, .cls-5 {
        stroke-width: 0px;
      }

      .cls-2 {
        fill: #79c258;
      }

      .cls-3 {
        fill: #fff;
      }

      .cls-4 {
        fill: #019961;
      }

      .cls-5 {
        fill: #b5d653;
      }
    </style>
  </defs>
  <path class="cls-5" d="m320.06,367.86H57.14c20.24,32.97,48.58,60.19,82.31,79.07,33.73,18.88,71.73,28.8,110.37,28.8s76.64-9.91,110.37-28.8c33.73-18.88,62.06-46.11,82.31-79.07h-130.77"/>
  <path class="cls-2" d="m409.07,254.71H23.76c.89,40.02,12.41,79.09,33.37,113.17h385.35c20.96-34.09,32.48-73.15,33.37-113.17h-66.78Z"/>
  <path class="cls-1" d="m448.78,141.56h-20.6v-.02H86.74v.02h-35.89c-17.9,33.06-27.26,70.08-27.21,107.69,0,1.84.09,3.66.14,5.49h92.52s0-.02,0-.02h267.05s0,.02,0,.02h92.51c.04-1.83.14-3.65.14-5.49.04-37.61-9.31-74.63-27.22-107.69Z"/>
  <path class="cls-4" d="m448.77,141.54c-15.34-28.37-36.54-53.15-62.2-72.66-25.65-19.52-55.17-33.33-86.58-40.52h0s0,0,0,0c0,0-59.65-12.58-110.29,2.51-.19.06-.36.13-.55.19-27.49,7.69-53.33,20.5-76.11,37.83-25.65,19.52-46.85,44.28-62.19,72.66h88.52c-.01.17-.02.29-.02.29h226.59l-.17-.29h82.99Z"/>
  <path class="cls-3" d="m285.74,195.08c-25.66-12.51-55.75-5.11-73.13,15.97l26.88,26.87c3.07,3.07,3.07,7.98,0,11-1.51,1.51-3.51,2.29-5.5,2.29s-3.99-.78-5.5-2.29l-24.44-24.44-62.37,127.9c-1.41,2.92-1.51,6.47,0,9.59,2.63,5.4,9.2,7.64,14.61,5.01l65.05-31.74-23.95-23.95c-3.07-3.02-3.07-7.98,0-11,3.07-3.02,7.98-3.02,11,0l27.75,27.75,49.66-24.25c11.69-5.7,21.67-15.24,27.8-27.8,14.65-30.04,2.19-66.26-27.85-80.92Zm44.84-16.99c9.49-19.82,4.58-43.23-14.75-59.25-24.49,20.3-25.56,52.34-3.85,73.95l3.89,3.89c21.62,21.71,53.7,20.64,73.96-3.85-16.02-19.33-39.44-24.25-59.25-14.75Z"/>
</svg>