<svg width="63" height="63" viewBox="0 0 63 63" fill="none" xmlns="http://www.w3.org/2000/svg">
<path d="M31.5 35.4375C41.2822 35.4375 49.2188 27.501 49.2188 17.7188C49.2188 7.93652 41.2822 0 31.5 0C21.7178 0 13.7812 7.93652 13.7812 17.7188C13.7812 27.501 21.7178 35.4375 31.5 35.4375ZM47.25 39.375H40.4701C37.7385 40.6301 34.6992 41.3438 31.5 41.3438C28.3008 41.3438 25.2738 40.6301 22.5299 39.375H15.75C7.05059 39.375 0 46.4256 0 55.125V57.0938C0 60.3545 2.64551 63 5.90625 63H57.0938C60.3545 63 63 60.3545 63 57.0938V55.125C63 46.4256 55.9494 39.375 47.25 39.375Z" fill="url(#paint0_linear_2372_152)"/>
<defs>
<linearGradient id="paint0_linear_2372_152" x1="32" y1="2.67201e-08" x2="31.5" y2="63" gradientUnits="userSpaceOnUse">
<stop stop-color="#019961"/>
<stop offset="1" stop-color="#B5D653"/>
</linearGradient>
</defs>
</svg>
