<svg width="819" height="739" viewBox="0 0 819 739" fill="none" xmlns="http://www.w3.org/2000/svg">
            <g clip-path="url(#clip0_2343_54)">
            <mask id="mask0_2343_54" style="mask-type:luminance" maskUnits="userSpaceOnUse" x="41" y="0" width="778" height="739">
            <path d="M819 0H111.198C65.5905 75.8015 41.5565 162.62 41.6905 251.082C41.6905 520.551 260.153 738.999 529.641 738.999C633.79 739.158 735.231 705.837 818.999 643.955L819 0Z" fill="white"/>
            </mask>
            <g mask="url(#mask0_2343_54)">
            <path d="M-261.449 -6.4682V466.79H-66.6852V763.108H818.405V-6.4682H-261.449Z" fill="url(#paint0_linear_2343_54)"/>
            <path opacity="0.5" d="M738.246 285.199C712.004 291.533 691.823 313.511 665.76 320.522C611.703 335.066 559.314 281.206 503.739 287.917C456.895 293.575 426.915 338.632 389.97 367.976C350.106 399.635 297.111 414.207 246.663 407.377C198.219 400.818 149.607 375.661 102.773 389.671C69.3067 399.686 44.9818 427.625 17.999 449.808C-5.82732 469.395 -37.7869 485.389 -66.686 478.597V672.147H818.307V352.213C820.732 311.861 777.545 275.71 738.246 285.199Z" fill="white"/>
            <path d="M-16.9199 526.265C30.711 452.551 118.163 420.294 191.898 449.236C223.928 461.809 254.261 484.881 287.95 484.538C369.76 483.713 402.91 391.432 492.332 400.842C518.91 403.637 545.707 409.382 572.105 405.246C600.938 400.729 626.542 384.87 651.283 369.395C676.025 353.921 701.696 338.151 730.555 333.83C763.572 328.887 801.434 343.666 812.858 377.096V616.432H-16.9199V526.265Z" fill="white"/>
            <path d="M491.611 460.129C459.972 441.858 419.41 440.032 386.256 455.384C364.914 465.268 347.227 481.398 328.183 495.188C309.138 508.978 287.14 520.939 263.629 520.315C209.347 518.876 213.972 446.553 165.326 435.249C136.927 428.652 110.176 451.254 81.2389 454.823C27.7772 461.42 23.6985 399.931 -21.4769 397.55C-61.3982 395.451 -83.5847 447.686 -121.126 455.644C-172.282 466.463 -206.954 400.485 -257.627 387.681C-258.901 387.359 -260.176 387.081 -261.45 386.833V466.79H-66.6884V675.327H550.32V554.991C544.622 516.226 526.473 480.263 491.611 460.129Z" fill="url(#paint1_linear_2343_54)"/>
            <path opacity="0.5" d="M501.653 142.739C496.734 126.556 476.856 121.034 460.012 119.441C339.014 107.991 160.108 113.01 52.4096 164.988C-43.0846 211.078 -158.133 141.448 -261.447 164.861V174.388C-254.55 196.382 -227.265 209.26 -202.932 210.98C-175.394 212.929 -146.801 206.688 -120.61 215.424C-95.6737 223.74 -77.1375 244.212 -56.2427 260.163C-10.4862 295.099 50.6867 309.022 107.057 297.327C157.337 286.897 202.434 257.576 253.096 249.19C304.927 240.612 359.429 254.522 409.928 240.044C445.75 229.594 476.192 205.79 494.97 173.546C500.368 164.174 504.799 153.09 501.653 142.739Z" fill="url(#paint2_linear_2343_54)"/>
            <path d="M25.0408 171.508L46.2362 167.493C38.9782 167.451 31.7806 168.814 25.0408 171.508Z" fill="url(#paint3_linear_2343_54)"/>
            <path opacity="0.5" d="M263.793 216.102C260.853 206.431 248.978 203.132 238.911 202.18C166.615 195.339 59.7159 198.337 -4.6367 229.394C-61.9926 257.077 -131.161 214.882 -193.144 229.532C-192.394 246.011 -173.664 255.709 -157.209 256.873C-140.754 258.037 -123.67 254.308 -108.02 259.527C-93.1194 264.497 -82.044 276.73 -69.5577 286.261C-42.2165 307.134 -5.66391 315.452 28.0186 308.466C58.0626 302.234 85.0072 284.714 115.279 279.703C146.244 274.577 178.814 282.889 208.988 274.237C230.391 267.992 248.58 253.769 259.8 234.503C263.027 228.91 265.672 222.288 263.793 216.102Z" fill="white"/>
            <path d="M-43.752 482.379C30.2859 539.636 129.096 556.405 222.431 549.385C315.765 542.365 405.901 513.813 496.024 488.552C600.764 459.193 709.889 439.953 818.405 439.953V763.112H-43.752V482.379Z" fill="url(#paint4_linear_2343_54)"/>
            <path d="M832.381 310.306C831.989 309.737 831.508 309.234 830.956 308.817C829.44 307.708 827.739 306.877 825.933 306.362C815.313 302.818 804.066 301.549 792.923 302.637C778.153 304.012 763.105 308.697 748.769 316.057C738.563 321.377 729.074 327.971 720.528 335.679C721.141 334.532 721.735 333.374 722.365 332.237C727.814 322.231 734.247 312.792 741.569 304.062C747.46 296.992 754.28 290.75 761.843 285.508C763.952 284.075 766.019 282.584 768.104 281.115C768.402 280.921 768.687 280.709 768.959 280.48C769.103 280.371 769.211 280.222 769.27 280.052C769.33 279.881 769.339 279.697 769.295 279.522C769.251 279.347 769.157 279.189 769.024 279.067C768.891 278.945 768.726 278.864 768.548 278.835C767.968 278.721 767.376 278.683 766.787 278.722C765.306 278.837 763.852 279.183 762.478 279.75C754.929 282.451 747.798 286.202 741.296 290.893C733.289 296.835 725.957 303.636 719.43 311.174C714.265 317.14 709.584 323.507 705.43 330.216C701.665 336.1 698.353 342.262 695.523 348.649C694.229 351.787 693.019 355.081 691.88 358.463C692.132 350.73 692.62 343.008 693.484 335.311C694.667 323.979 696.978 312.793 700.382 301.919C703.1 293.126 706.996 284.743 711.964 276.996C713.358 274.863 714.693 272.688 716.05 270.531C716.253 270.239 716.437 269.934 716.6 269.618C716.69 269.462 716.732 269.282 716.721 269.102C716.711 268.922 716.648 268.749 716.54 268.605C716.433 268.46 716.285 268.35 716.116 268.288C715.946 268.226 715.762 268.215 715.587 268.256C715.008 268.375 714.447 268.568 713.918 268.829C712.596 269.506 711.387 270.385 710.336 271.434C704.406 276.83 699.265 283.035 695.066 289.864C689.961 298.429 685.807 307.525 682.679 316.992C680.205 324.484 678.332 332.161 677.077 339.95C675.863 346.831 675.176 353.795 675.02 360.78C675.111 367.97 675.594 375.149 676.468 382.287C677.153 388.274 678.114 394.226 679.214 400.153C675.542 411.695 673.097 423.59 671.918 435.644C671.491 440.311 671.378 445.002 671.58 449.684C671.63 454.359 673.202 458.891 676.06 462.591C678.582 465.787 681.758 464.888 683.899 460.773C686.215 456.499 687.612 451.788 688.001 446.942C688.286 443.203 688.77 439.467 689.267 435.744C689.947 430.684 690.781 425.642 691.837 420.629C692.985 420.2 693.922 419.343 694.451 418.237C695.999 415.469 696.573 412.262 696.081 409.129C695.956 408.375 695.847 407.62 695.734 406.864C696.779 403.899 697.908 400.962 699.076 398.045C699.321 397.835 699.583 397.66 699.817 397.426C701.535 395.706 703.313 394.048 705.038 392.337C707.608 389.788 710.132 387.199 712.717 384.668C716.24 381.219 720.146 378.214 723.926 375.065C726.022 373.32 728.184 371.659 730.412 370.083C739.396 363.678 748.709 357.747 758.313 352.315C768.214 346.676 778.652 342.038 789.472 338.469C798.202 335.558 807.286 333.841 816.476 333.365C819.025 333.256 821.569 333.073 824.112 332.922C824.468 332.917 824.823 332.888 825.175 332.836C825.354 332.818 825.525 332.748 825.665 332.635C825.805 332.521 825.909 332.369 825.964 332.197C826.019 332.025 826.023 331.841 825.974 331.667C825.926 331.493 825.828 331.337 825.692 331.219C825.259 330.821 824.776 330.48 824.256 330.206C822.935 329.524 821.516 329.053 820.05 328.812C812.21 327.134 804.172 326.571 796.175 327.137C786.239 327.975 776.424 329.898 766.907 332.872C759.376 335.224 752.044 338.173 744.982 341.69C740.89 343.676 736.888 345.843 732.887 348.278C733.979 347.19 735.067 346.104 736.191 345.049C749.097 332.935 764.059 323.35 780.082 317.391C793.007 312.568 806.323 310.299 819.028 311.103C822.524 311.321 826.022 311.548 829.473 311.908C829.954 311.975 830.437 312.017 830.922 312.035C832.079 312.033 832.891 311.12 832.381 310.306Z" fill="url(#paint5_linear_2343_54)"/>
            <path d="M680.297 571.749C682.146 570.895 684.02 570.087 685.84 569.175C688.269 567.96 690.678 566.701 693.046 565.384C693.966 564.838 694.826 564.197 695.612 563.472C696.217 562.942 696.171 562.404 695.545 562.029C694.059 561.144 693.695 559.715 693.556 558.183C693.472 556.36 693.803 554.542 694.525 552.866C696.228 548.305 698.797 544.117 702.09 540.531C703.77 538.705 705.596 536.97 707.358 535.197C709.631 532.911 711.978 530.67 714.168 528.329C716.865 525.514 719.102 522.293 720.797 518.783C722.92 514.505 723.754 509.702 723.196 504.958C723.08 504.077 722.888 503.208 722.624 502.359C722.413 501.673 722.108 501.02 721.718 500.418C720.153 498.044 717.445 497.668 714.398 499.345C712.696 500.283 711.162 501.497 709.857 502.936C708.45 504.482 707.101 506.063 705.808 507.679C703.71 510.417 701.448 513.027 699.035 515.493C698.187 516.334 697.291 517.126 696.352 517.864C695.807 518.259 695.208 518.573 694.573 518.798C694.451 518.867 694.316 518.909 694.177 518.922C694.038 518.935 693.898 518.919 693.765 518.874C693.632 518.83 693.51 518.758 693.407 518.664C693.304 518.569 693.222 518.454 693.166 518.326C692.95 517.758 692.817 517.162 692.772 516.555C692.713 515.096 692.928 513.638 693.406 512.258C693.931 510.602 694.507 508.948 695.157 507.31C697.281 501.938 699.378 496.559 701.125 491.129C702.824 486.027 704.049 480.778 704.784 475.451C705.444 471.177 705.381 466.822 704.597 462.569C703.716 458.067 701.42 453.966 698.042 450.862C697.242 450.118 696.351 449.477 695.392 448.953C692.595 447.453 689.389 448.072 686.784 450.52C685.828 451.381 685.059 452.43 684.527 453.602C683.87 455.031 683.316 456.507 682.87 458.016C682.186 460.596 681.67 463.189 681.121 465.774C680.468 468.882 679.958 471.997 679.206 475.095C678.633 477.445 677.813 479.787 677.039 482.124C676.715 483.052 676.312 483.949 675.834 484.808C675.473 485.482 675.031 486.109 674.519 486.677C674.042 487.268 673.383 487.684 672.644 487.859C671.904 488.033 671.128 487.957 670.437 487.641C669.507 487.201 668.748 486.466 668.277 485.551C667.374 483.897 666.761 482.101 666.464 480.24C665.946 477.396 665.841 474.492 666.152 471.618C666.452 468.864 666.868 466.101 667.253 463.34C667.83 459.203 668.56 455.054 668.988 450.922C669.886 442.708 669.42 434.402 667.609 426.34C666.781 422.213 665.205 418.272 662.96 414.712C661.341 412.141 659.256 409.895 656.812 408.09C655.624 407.201 654.287 406.531 652.863 406.11C651.463 405.687 649.965 405.724 648.588 406.215C647.21 406.705 646.026 407.624 645.209 408.837C644.345 409.972 643.72 411.271 643.37 412.654C642.909 414.488 642.529 416.332 642.175 418.171C641.876 419.725 641.701 421.278 641.414 422.832C641.045 425.152 640.311 427.398 639.239 429.488C638.728 430.439 638.117 431.333 637.415 432.153C636.854 432.818 636.128 433.324 635.31 433.622C634.493 433.92 633.611 434 632.753 433.852C631.787 433.722 630.856 433.399 630.016 432.903C628.396 431.961 627.024 430.647 626.012 429.07C624.638 426.99 623.655 424.677 623.111 422.244C622.15 418.082 621.329 413.879 620.439 409.696C619.484 405.088 618.228 400.546 616.68 396.101C615.781 393.552 614.873 391.003 613.82 388.517C610.181 379.929 605.279 372.099 598.068 365.676C595.888 363.693 593.46 362.001 590.845 360.642C589.346 359.859 587.762 359.249 586.126 358.822C584.769 358.472 583.37 358.313 581.97 358.35C580.066 358.377 578.201 358.887 576.547 359.831C574.894 360.775 573.507 362.123 572.516 363.748C571.611 365.253 571.024 366.928 570.792 368.669C570.395 371.36 570.566 374.105 571.296 376.725C572.328 379.987 573.547 383.186 574.947 386.308C575.67 388.096 576.516 389.831 577.249 391.616C578.327 394.182 578.981 396.906 579.185 399.682C579.264 400.647 579.248 401.618 579.138 402.581C579.02 403.52 578.789 404.441 578.449 405.325C577.382 408.084 575.128 409.803 572.023 410.661C570.251 411.172 568.388 411.285 566.567 410.993C565.096 410.757 563.645 410.414 562.224 409.966C560.142 409.283 558.135 408.467 556.11 407.68C553.302 406.493 550.405 405.532 547.445 404.804C545.716 404.447 543.97 404.179 542.214 404C540.966 403.881 539.707 403.987 538.496 404.311C537.687 404.468 536.934 404.835 536.312 405.374C535.689 405.914 535.22 406.607 534.949 407.385C534.434 408.853 534.46 410.457 535.024 411.908C535.837 414.027 536.975 416.006 538.398 417.774C542.259 422.825 547.358 426.756 553.186 430.015C558.4 432.911 563.832 435.396 569.432 437.448C572.437 438.561 575.394 439.753 578.319 440.992C580.486 441.893 582.533 443.06 584.413 444.465C585.268 445.115 586.067 445.837 586.799 446.623C587.116 446.939 587.367 447.314 587.538 447.726C587.71 448.139 587.799 448.581 587.799 449.028C587.806 449.19 587.78 449.35 587.723 449.501C587.666 449.652 587.58 449.79 587.469 449.907C587.358 450.024 587.224 450.118 587.076 450.182C586.928 450.246 586.769 450.28 586.608 450.282C585.961 450.391 585.304 450.431 584.649 450.403C583.174 450.316 581.699 450.211 580.255 450.025C577.74 449.697 575.249 449.304 572.747 448.932C569.26 448.364 565.725 448.134 562.194 448.247C559.999 448.295 557.819 448.611 555.702 449.188C554.729 449.474 553.774 449.816 552.841 450.212C551.779 450.644 550.816 451.287 550.01 452.103C549.205 452.919 548.574 453.891 548.156 454.959C547.596 456.371 547.387 457.898 547.547 459.41C547.85 462.706 549.34 465.781 551.741 468.062C553.377 469.676 555.224 471.063 557.23 472.185C560.744 474.142 564.464 475.706 568.321 476.847C570.894 477.638 573.512 478.351 576.102 479.116C580.458 480.397 584.83 481.655 589.156 482.992C592.431 483.979 595.588 485.321 598.571 486.994C599.483 487.519 600.37 488.077 601.219 488.671C601.724 489.037 602.195 489.448 602.625 489.899C603.179 490.459 603.86 491.078 603.294 491.961C602.742 492.824 601.669 492.841 600.767 492.881C599.731 492.934 598.693 492.917 597.66 492.83C595.686 492.656 593.73 492.424 591.774 492.194C588.492 491.806 585.23 491.353 581.934 491.019C578.762 490.731 575.57 490.724 572.397 490.996C570.391 491.116 568.412 491.52 566.52 492.195C565.379 492.622 564.278 493.149 563.23 493.77C561.478 494.78 560.147 496.387 559.481 498.297C558.886 499.809 558.671 501.444 558.854 503.058C559.037 504.673 559.612 506.218 560.531 507.558C562.014 509.718 563.978 511.505 566.269 512.778C570.433 515.197 574.912 517.026 579.58 518.211C586.156 519.925 592.725 521.656 599.253 523.459C602.102 524.246 604.869 525.192 607.615 526.158C609.638 526.848 611.562 527.799 613.339 528.987C614.075 529.415 614.691 530.022 615.131 530.752C615.225 530.894 615.286 531.055 615.308 531.225C615.33 531.394 615.313 531.566 615.259 531.727C615.204 531.889 615.113 532.035 614.993 532.156C614.873 532.277 614.726 532.369 614.565 532.425C613.695 532.94 612.76 533.338 611.785 533.609C610.091 534.011 608.373 534.247 606.664 534.517C603.507 535.017 600.348 535.441 597.196 535.991C594.662 536.436 592.206 537.244 589.902 538.39C588.697 538.988 587.593 539.772 586.631 540.714C585.143 542.054 584.226 543.915 584.071 545.911C583.928 548.048 584.586 550.162 585.917 551.839C587.586 553.975 589.538 555.874 591.72 557.482C593.76 558.945 596.061 560.005 598.5 560.605C601.974 561.539 605.539 562.099 609.133 562.276C612.928 562.461 616.726 562.661 620.556 562.678C627.497 562.752 634.431 563.175 641.33 563.945C648.153 564.552 654.735 566.773 660.53 570.426C663.114 572.09 665.778 573.67 668.402 575.287C668.451 575.317 668.501 575.351 668.547 575.383C669.073 575.748 669.693 575.954 670.332 575.978C670.972 576.003 671.605 575.844 672.157 575.52C674.853 574.228 677.579 573.002 680.294 571.748L680.297 571.749Z" fill="url(#paint6_linear_2343_54)"/>
            <path d="M818.405 -6.46838H649.308C657.906 20.1294 645.274 49.0288 644.51 77.198C643.441 116.538 668.352 155.329 704.577 170.723C740.802 186.117 786.022 177.128 813.603 149.057C815.253 147.38 816.838 145.628 818.401 143.857L818.405 -6.46838Z" fill="url(#paint7_linear_2343_54)"/>
            <path d="M458.913 718.778C462.142 717.763 465.34 716.637 468.604 715.754C475.306 713.943 482.025 712.182 488.773 710.552C493.676 709.328 498.665 708.476 503.697 708.003C507.001 707.719 510.3 707.392 513.606 707.138C514.551 707.074 515.499 707.109 516.437 707.24C516.697 707.254 516.949 707.333 517.17 707.47C517.391 707.607 517.575 707.797 517.704 708.023C517.832 708.249 517.902 708.503 517.907 708.764C517.912 709.024 517.851 709.281 517.731 709.511C517.518 710.02 517.208 710.483 516.819 710.873C516.149 711.543 515.441 712.174 514.701 712.763C512.228 714.729 509.587 716.474 506.81 717.978C493.844 725.196 480.349 731.419 466.441 736.594C454.984 740.868 443.318 744.562 431.489 747.66C428.131 748.527 424.718 749.189 421.342 749.993C420.107 750.263 418.826 750.242 417.601 749.932C411.973 748.689 406.447 747.078 400.957 745.336C390.573 742.048 380.319 738.402 370.287 734.145C358.244 729.119 347.017 722.328 336.975 713.994C335.225 712.528 333.577 710.927 331.971 709.301C331.314 708.62 330.783 707.827 330.404 706.96C330.249 706.7 330.167 706.404 330.167 706.102C330.166 705.8 330.247 705.503 330.4 705.242C330.553 704.982 330.773 704.767 331.038 704.621C331.302 704.475 331.601 704.402 331.903 704.411C332.53 704.346 333.164 704.387 333.777 704.532C335.768 705.02 337.767 705.499 339.716 706.123C348.668 708.981 357.361 712.527 366.048 716.094C376.932 720.557 387.605 725.483 398.213 730.563C398.977 730.929 399.759 731.255 400.665 731.657C400.74 730.907 400.274 730.707 399.975 730.447C390.868 722.501 382.268 713.991 374.225 704.969C359.799 688.858 347.076 671.506 337.145 652.22C335.629 649.278 334.296 646.239 332.989 643.195C332.421 641.808 331.991 640.369 331.704 638.898C331.556 638.048 331.577 637.178 331.767 636.337C331.803 636.098 331.89 635.871 332.022 635.669C332.154 635.467 332.328 635.296 332.532 635.169C332.737 635.041 332.967 634.959 333.206 634.928C333.445 634.898 333.688 634.919 333.918 634.992C334.685 635.158 335.409 635.484 336.042 635.948C337.303 636.897 338.486 637.945 339.581 639.081C343.305 643.054 347.035 647.028 350.621 651.131C357.169 658.621 363.658 666.161 370.09 673.751C379.153 684.389 388.409 694.858 397.857 705.159C398.795 706.248 399.842 707.238 400.982 708.114C400.881 707.698 400.752 707.29 400.597 706.892C393.053 690.119 386.644 672.86 381.414 655.229C378.829 646.688 376.922 637.958 375.709 629.118C374.973 624.673 374.662 620.169 374.778 615.665C374.797 614.958 374.897 614.255 375.078 613.571C375.461 612.292 376.503 612.002 377.396 612.939C377.999 613.562 378.515 614.265 378.929 615.027C379.84 616.687 380.666 618.393 381.403 620.137C384.118 626.87 386.794 633.617 389.433 640.379C396.581 658.593 403.557 676.877 411.297 694.855C411.636 695.75 412.121 696.584 412.732 697.322C412.704 696.822 412.693 696.322 412.648 695.822C412.387 692.913 412.055 690.009 411.859 687.097C411.216 677.481 410.912 667.851 410.88 658.218C410.728 648.347 411.279 638.478 412.529 628.686C414.278 616.409 417.426 604.372 421.911 592.811C422.195 592.075 422.518 591.354 422.878 590.652C423.125 590.158 423.43 589.695 423.787 589.273C424.875 588.022 426.112 588.185 426.699 589.703C427.016 590.51 427.203 591.362 427.253 592.228C427.388 595.144 427.52 598.066 427.493 600.984C427.418 609.905 427.246 618.827 427.137 627.744C427.015 637.928 426.942 648.112 426.813 658.296C426.696 667.453 426.534 676.61 426.39 685.765C426.366 687.264 426.303 688.763 426.294 690.263C426.29 691.039 426.369 691.818 426.407 692.581C427.157 692.715 427.246 692.14 427.452 691.77C435.117 678.075 444.391 665.505 454.391 653.46C460.641 645.809 467.652 638.813 475.318 632.579C476.973 631.239 478.699 629.986 480.486 628.827C481.618 628.108 482.842 627.548 484.126 627.163C484.52 627.014 484.944 626.965 485.361 627.018C485.778 627.071 486.176 627.226 486.52 627.468C486.863 627.711 487.142 628.034 487.332 628.409C487.522 628.785 487.617 629.201 487.609 629.621C487.712 630.64 487.625 631.669 487.353 632.657C486.679 635.005 485.868 637.312 484.923 639.566C481.351 647.57 477.227 655.316 472.58 662.749C464.642 675.671 456.098 688.193 447.797 700.875C447.326 701.596 446.874 702.333 446.434 703.029C446.763 703.497 447.02 703.218 447.249 703.062C447.641 702.798 448.013 702.505 448.392 702.22C461.881 692.176 476.108 683.161 490.951 675.254C496.199 672.346 501.671 669.862 507.314 667.825C508.645 667.332 510.008 666.926 511.393 666.612C512.544 666.345 513.729 666.254 514.907 666.344C517.151 666.58 518.213 668.306 517.44 670.441C517.009 671.539 516.428 672.574 515.716 673.514C514.057 675.731 512.133 677.736 509.988 679.485C505.047 683.665 500.181 687.957 495.042 691.879C488.144 697.147 481.022 702.128 473.981 707.207C469.5 710.438 464.984 713.622 460.485 716.834C459.904 717.24 459.344 717.675 458.808 718.139C458.726 718.214 458.883 718.554 458.923 718.771L458.504 718.631L458.913 718.778Z" fill="url(#paint8_linear_2343_54)"/>
            <path d="M-34.2983 -6.46838C-38.7301 -2.79486 -42.7449 1.35397 -45.0654 6.56063C-54.7019 28.1587 -30.1589 49.9569 -7.26447 55.8976C59.4394 73.2044 137.097 35.1309 196.036 70.8398C233.49 93.5317 251.355 140.319 289.155 162.434C321.828 181.552 366.611 177.083 394.861 151.881C412.624 136.034 423.951 113.35 443.774 100.162C470.267 82.5359 504.811 85.9987 536.621 86.7927C568.432 87.5866 605.178 82.2825 622.122 55.348C630.865 41.4509 632.444 24.3712 633.794 8.00979C634.194 3.18423 634.592 -1.64182 634.988 -6.46838H-34.2983Z" fill="url(#paint9_linear_2343_54)"/>
            <path d="M520.731 -6.46838H5.58447C8.68917 -0.862701 12.5953 4.25997 17.1794 8.73775C41.2592 32.0474 77.014 38.533 110.523 38.8607C144.033 39.1883 177.856 34.5057 210.893 40.1351C281.287 52.1303 348.711 109.827 415.832 85.4514C459.926 69.4386 484.418 23.3606 520.731 -6.46838Z" fill="url(#paint10_linear_2343_54)"/>
            <path d="M818.404 88.8288V83.8898L721.695 102.304L782.875 -6.47064H746.812L623.369 161.841L520.728 -6.46691H451.376L502.695 78.6239L390.354 11.7643L79.6646 13.4406L85.2809 17.2641L289.363 27.924L247.13 83.8921L249.047 85.5684L310.948 29.0516L330.713 30.0839L402.839 52.275L541.543 132.718L585.928 238.125L646.958 701.162L741.554 695.419L666.368 200.674L699.781 141.268L818.404 88.8288Z" fill="url(#paint11_linear_2343_54)"/>
            <path d="M630.582 206.365C588.746 165.317 478.663 176.432 433.998 190.112C396.96 201.455 314.628 242.754 325.889 292.215C329.589 308.466 347.393 317.498 363.907 319.745C399.064 324.526 438.657 305.863 472.771 318.268C506.078 330.379 522.697 351.871 562.53 338.408C593.375 327.987 617.452 302.751 633.178 274.244C642.85 256.711 649.614 234.435 639.269 217.285C636.845 213.293 633.927 209.624 630.582 206.365Z" fill="#43AF5C"/>
            <path d="M585.636 195.456C498.789 155.096 390.005 155.532 308.419 211.848C300.903 217.038 292.906 223.469 291.775 232.531C289.895 247.509 308.249 257.558 323.289 256.26C338.33 254.961 352.278 247.144 367.346 246.239C391.268 244.806 412.24 260.598 432.628 273.192C453.017 285.786 479.721 295.669 500.024 282.942C518.009 271.668 524.891 245.757 545.056 239.133C556.261 235.45 568.393 238.983 580.179 239.412C591.966 239.841 606.116 234.869 608.288 223.275C610.666 210.574 597.358 200.903 585.636 195.456Z" fill="url(#paint12_linear_2343_54)"/>
            <path d="M799.444 649.553C797.205 649.534 794.966 649.586 792.733 649.478C789.754 649.336 786.775 649.136 783.811 648.829C782.632 648.668 781.479 648.359 780.378 647.909C780.194 647.86 780.026 647.766 779.889 647.635C779.751 647.504 779.649 647.341 779.591 647.16C779.533 646.979 779.522 646.787 779.558 646.6C779.594 646.414 779.677 646.24 779.798 646.094C780.888 644.171 780.609 642.205 780.06 640.24C779.368 638.025 778.223 635.978 776.699 634.229C773.122 629.711 768.656 625.974 763.578 623.25C761.073 621.939 758.463 620.821 755.901 619.621C752.594 618.071 749.238 616.622 745.991 614.957C741.913 612.914 738.216 610.186 735.059 606.894C730.848 602.515 727.873 597.099 726.437 591.196C726.154 590.037 725.955 588.86 725.841 587.672C725.744 586.707 725.755 585.734 725.875 584.771C726.375 580.974 728.921 578.998 732.724 579.363C734.883 579.578 736.978 580.219 738.887 581.249C740.991 582.369 743.052 583.564 745.073 584.836C748.369 587.016 751.81 588.97 755.372 590.683C756.589 591.241 757.841 591.717 759.121 592.108C759.841 592.288 760.586 592.342 761.324 592.265C761.495 592.26 761.663 592.22 761.818 592.147C761.972 592.074 762.11 591.971 762.223 591.842C762.335 591.714 762.42 591.563 762.472 591.401C762.524 591.238 762.542 591.066 762.524 590.896C762.487 590.082 762.351 589.275 762.119 588.493C761.55 586.713 760.683 585.041 759.555 583.551C758.28 581.805 756.962 580.088 755.576 578.429C751.03 572.993 746.512 567.536 742.318 561.818C738.261 556.376 734.677 550.595 731.606 544.541C728.976 539.511 727.088 534.128 726 528.558C724.858 522.516 725.307 516.282 727.302 510.465C727.758 509.126 728.361 507.841 729.101 506.635C731.227 503.226 734.716 502.194 738.426 503.755C739.817 504.315 741.064 505.182 742.072 506.292C743.392 507.709 744.61 509.218 745.718 510.807C747.563 513.606 749.25 516.509 750.96 519.395C753.009 522.858 754.921 526.409 757.068 529.81C758.697 532.39 760.572 534.816 762.402 537.264C763.128 538.212 763.934 539.094 764.813 539.902C765.461 540.517 766.188 541.044 766.974 541.469C767.718 541.923 768.612 542.063 769.459 541.858C770.307 541.654 771.038 541.121 771.493 540.377C772.246 539.255 772.67 537.945 772.717 536.595C772.877 534.06 772.685 531.516 772.146 529.034C771.405 525.301 770.206 521.673 768.578 518.232C767.04 515.003 765.383 511.831 763.755 508.644C761.315 503.864 758.718 499.158 756.433 494.306C751.767 484.455 748.511 473.996 746.761 463.237C745.735 457.653 745.542 451.947 746.189 446.306C746.638 442.299 747.711 438.387 749.369 434.712C750.127 433.004 751.164 431.433 752.437 430.064C755.057 427.378 758.214 427.05 761.33 429.149C762.755 430.117 763.966 431.367 764.888 432.822C766.175 434.829 767.385 436.886 768.566 438.956C769.563 440.704 770.441 442.522 771.425 444.273C772.783 446.853 774.527 449.209 776.598 451.261C777.516 452.131 778.531 452.893 779.623 453.53C781.502 454.609 783.35 454.307 785.057 453.02C785.998 452.281 786.784 451.364 787.371 450.321C788.597 448.179 789.376 445.81 789.66 443.358C790.1 440.024 790.044 436.644 789.493 433.326C788.584 427.66 787.517 422.021 786.527 416.368C785.409 410.129 784.626 403.836 784.179 397.514C783.935 393.867 783.696 390.217 783.634 386.568C783.417 373.95 784.807 361.558 789.143 349.615C790.4 346.022 792.068 342.587 794.113 339.377C795.233 337.612 796.543 335.976 798.022 334.498C799.184 333.336 800.515 332.357 801.971 331.593C803.854 330.569 806.006 330.151 808.136 330.396C810.265 330.641 812.267 331.537 813.868 332.962C815.506 334.385 816.845 336.12 817.805 338.066C819.443 341.258 820.499 344.716 820.924 348.279C821.496 352.878 821.434 357.508 821.575 362.127C821.65 364.737 821.588 367.348 821.656 369.958C821.727 373.69 822.294 377.396 823.344 380.978C823.693 382.196 824.145 383.382 824.693 384.524C825.22 385.593 825.867 386.599 826.62 387.523C828.927 390.326 831.959 391.186 835.456 390.509C837.521 390.119 839.452 389.21 841.069 387.868C842.458 386.742 843.759 385.513 844.962 384.19C846.741 382.183 848.386 380.052 850.06 377.955C852.299 374.97 854.77 372.166 857.449 369.569C859.001 368.178 860.628 366.872 862.323 365.657C863.479 364.831 864.794 364.254 866.185 363.963C867.094 363.72 868.056 363.764 868.939 364.087C869.823 364.411 870.585 364.999 871.122 365.772C872.336 367.398 873.021 369.359 873.084 371.387C873.223 374.445 872.973 377.509 872.342 380.504C870.743 388.888 867.403 396.58 863.03 403.854C859.176 410.239 854.855 416.332 850.103 422.081C847.594 425.131 845.167 428.254 842.795 431.412C840.996 433.796 839.473 436.378 838.257 439.106C837.687 440.401 837.211 441.736 836.832 443.099C836.481 444.252 836.509 445.487 836.914 446.623C836.952 446.808 837.031 446.982 837.146 447.132C837.262 447.283 837.409 447.405 837.579 447.489C837.748 447.574 837.934 447.619 838.123 447.621C838.313 447.624 838.5 447.583 838.671 447.502C839.379 447.27 840.056 446.952 840.687 446.557C842.126 445.626 843.556 444.673 844.919 443.633C847.291 441.824 849.609 439.944 851.946 438.093C855.119 435.488 858.561 433.229 862.212 431.354C864.389 430.2 866.722 429.368 869.137 428.885C870.237 428.694 871.349 428.582 872.465 428.548C873.775 428.516 875.075 428.792 876.26 429.354C877.445 429.915 878.482 430.747 879.287 431.782C880.521 433.287 881.413 435.043 881.899 436.928C883.077 441.2 882.969 445.724 881.59 449.936C880.7 452.785 879.476 455.518 877.944 458.08C875.37 462.368 872.348 466.371 868.929 470.021C866.706 472.435 864.405 474.778 862.154 477.164C858.366 481.179 854.554 485.169 850.822 489.234C847.929 492.354 845.371 495.769 843.19 499.423C842.51 500.577 841.877 501.765 841.292 502.969C840.947 503.713 840.661 504.482 840.436 505.27C840.132 506.27 839.73 507.413 840.692 508.186C841.633 508.942 842.717 508.361 843.638 507.91C844.711 507.388 845.744 506.787 846.727 506.111C848.626 504.795 850.482 503.416 852.338 502.039C855.452 499.728 858.513 497.347 861.669 495.094C864.663 492.995 867.858 491.2 871.209 489.736C873.233 488.774 875.406 488.163 877.636 487.93C878.969 487.819 880.311 487.853 881.638 488.032C882.787 488.196 883.892 488.59 884.887 489.188C885.881 489.787 886.746 490.58 887.43 491.518C888.747 493.197 889.703 495.13 890.238 497.195C890.774 499.26 890.877 501.414 890.542 503.521C890.055 506.927 888.898 510.203 887.138 513.159C884.156 518.336 880.493 523.088 876.247 527.29C870.432 533.078 864.631 538.88 858.903 544.753C856.406 547.314 854.058 550.023 851.738 552.748C849.985 554.786 848.487 557.032 847.278 559.434C846.722 560.408 846.38 561.49 846.276 562.607C846.235 563.627 846.601 564.256 847.595 564.352C848.699 564.502 849.82 564.47 850.914 564.259C852.788 563.809 854.617 563.139 856.45 562.518C859.836 561.371 863.191 560.128 866.6 559.044C869.306 558.181 872.144 557.803 874.982 557.926C876.475 557.995 877.941 558.348 879.303 558.965C881.526 559.916 883.286 561.703 884.203 563.939C885.317 566.572 885.602 569.48 885.021 572.279C884.327 575.793 883.228 579.214 881.746 582.475C880.427 585.324 878.602 587.911 876.36 590.11C873.373 593.143 870.052 595.827 866.459 598.111C862.74 600.459 859.028 602.828 855.198 604.986C848.213 608.998 841.455 613.394 834.955 618.153C828.123 623.026 822.534 629.437 818.637 636.869C816.799 640.364 814.842 643.798 812.939 647.259C812.905 647.325 812.87 647.391 812.839 647.457C812.552 648.149 812.053 648.733 811.415 649.126C810.776 649.519 810.029 649.699 809.282 649.643C806.001 649.556 802.719 649.568 799.439 649.538L799.444 649.553Z" fill="url(#paint13_linear_2343_54)"/>
            <path d="M815.097 621.663C804.876 608.716 793.052 597.121 779.907 587.155C765.236 575.964 749.401 566.685 732.806 560.259C711.868 552.131 690.337 547.814 669.662 548.046C654.062 548.151 638.658 551.536 624.452 557.982C621.989 559.107 619.608 560.338 617.843 562.111C617.14 562.77 616.547 563.536 616.087 564.381C615.5 565.58 616.752 566.733 618.358 566.562C619.027 566.469 619.692 566.34 620.348 566.177C625.082 565.181 629.895 564.358 634.708 563.553C652.208 560.598 670.992 561.815 689.606 566.631C712.673 572.574 734.798 583.692 754.438 598.614C773.532 613.213 790.192 630.743 803.8 650.554C807.183 655.448 810.276 660.535 813.064 665.79C818.088 675.246 822.886 684.898 826.255 695.021C828.725 702.443 830.762 709.969 832.59 717.539C833.82 722.624 835.031 727.735 835.964 732.877C837.207 739.536 839.826 745.863 843.652 751.452C847.209 756.844 851.75 757.629 854.779 752.836C857.904 747.842 859.64 741.804 859.119 734.301C858.722 727.782 857.888 721.298 856.62 714.891C853.159 697.912 847.869 681.358 840.842 665.518C833.969 649.962 825.33 635.247 815.097 621.663Z" fill="url(#paint14_linear_2343_54)"/>
            <path d="M912.657 681.785C899.3 672.107 884.768 664.164 869.41 658.148C852.249 651.366 834.484 646.746 816.768 645.073C794.41 642.946 772.517 644.649 752.686 650.494C737.704 654.836 723.803 662.282 711.887 672.349C709.824 674.099 707.865 675.933 706.65 678.121C706.153 678.946 705.791 679.844 705.578 680.782C705.34 682.099 706.859 682.864 708.356 682.266C708.976 681.994 709.58 681.688 710.167 681.35C714.45 679.101 718.858 677.006 723.271 674.918C739.306 667.321 757.708 663.384 776.93 662.958C800.746 662.403 825.057 667.085 848.019 676.106C870.364 684.961 891.165 697.3 909.649 712.664C914.236 716.452 918.596 720.507 922.709 724.805C930.112 732.538 937.356 740.524 943.352 749.347C947.748 755.818 951.753 762.508 955.573 769.294C958.14 773.854 960.695 778.44 962.995 783.136C966.002 789.205 970.241 794.58 975.441 798.92C980.333 803.141 984.913 802.664 986.525 797.226C988.175 791.57 988.203 785.287 985.662 778.208C983.505 772.044 980.938 766.032 977.977 760.211C970.03 744.812 960.437 730.32 949.365 716.99C938.518 703.888 926.201 692.075 912.657 681.785Z" fill="url(#paint15_linear_2343_54)"/>
            <path d="M820.563 620.695C816.987 611.64 812.726 602.871 807.817 594.463C802.415 584.887 796.258 575.756 789.404 567.159C780.617 556.358 771.049 546.35 760.11 537.683C751.323 530.782 741.608 525.153 731.25 520.964C729.369 520.099 727.364 519.534 725.309 519.29C724.491 519.203 723.665 519.223 722.852 519.347C722.602 519.378 722.367 519.481 722.175 519.644C721.983 519.806 721.844 520.022 721.773 520.263C721.702 520.504 721.703 520.761 721.777 521.002C721.85 521.242 721.992 521.456 722.186 521.617C722.551 521.951 722.938 522.262 723.343 522.547C726.163 524.708 728.955 526.906 731.81 529.02C742.177 536.7 751.053 545.874 758.984 556.003C768.684 568.574 777.106 582.08 784.126 596.322C790.964 610.09 797.077 624.206 802.44 638.613C803.784 642.166 804.979 645.782 806.033 649.431C807.936 656.016 810.096 662.538 811.467 669.268C812.472 674.207 813.359 679.164 814.335 684.112C814.989 687.435 815.748 690.738 816.386 694.065C817.257 698.398 819.557 702.314 822.917 705.185C826.123 708.077 830.05 707.635 832.492 704.072C835.102 700.504 836.409 696.149 836.197 691.735C836.024 687.772 835.645 683.821 835.064 679.898C833.414 669.698 831.513 659.536 829.061 649.506C826.752 639.756 823.916 630.138 820.563 620.695Z" fill="url(#paint16_linear_2343_54)"/>
            <path d="M842.171 594.286C840.943 584.628 838.983 575.077 836.308 565.715C833.441 555.101 829.733 544.732 825.22 534.706C819.378 522.069 812.583 510.003 804.127 498.9C797.321 490.041 789.299 482.185 780.3 475.565C778.692 474.261 776.889 473.218 774.957 472.472C774.186 472.186 773.381 472.001 772.562 471.921C772.313 471.889 772.06 471.931 771.834 472.041C771.608 472.151 771.419 472.325 771.291 472.541C771.163 472.757 771.101 473.006 771.112 473.257C771.124 473.508 771.209 473.75 771.356 473.954C771.627 474.368 771.924 474.765 772.245 475.141C774.445 477.932 776.605 480.752 778.848 483.506C786.993 493.513 793.325 504.596 798.505 516.373C804.793 530.952 809.613 546.121 812.893 561.655C816.112 576.687 818.544 591.876 820.179 607.162C820.601 610.933 820.864 614.734 820.984 618.53C821.199 625.382 821.678 632.235 821.342 639.096C821.095 644.13 820.726 649.158 820.451 654.19C820.263 657.571 820.18 660.959 819.975 664.341C819.748 668.754 821.008 673.117 823.552 676.731C825.942 680.323 829.859 680.868 833.108 678.019C836.517 675.207 838.86 671.312 839.747 666.982C840.56 663.1 841.171 659.179 841.578 655.233C842.501 644.942 843.174 634.627 843.278 624.301C843.454 614.284 843.084 604.264 842.171 594.286Z" fill="url(#paint17_linear_2343_54)"/>
            <path d="M792.697 628.791C784.131 624.162 775.225 620.191 766.057 616.914C755.758 613.06 745.169 610.033 734.39 607.861C720.716 605.247 706.949 603.742 692.998 604.149C681.832 604.52 670.774 606.463 660.151 609.921C658.155 610.47 656.258 611.328 654.528 612.463C653.845 612.921 653.225 613.467 652.685 614.087C652.513 614.271 652.399 614.501 652.357 614.749C652.314 614.997 652.346 615.251 652.446 615.482C652.547 615.712 652.714 615.908 652.924 616.045C653.135 616.182 653.382 616.255 653.633 616.253C654.128 616.274 654.624 616.263 655.117 616.22C658.665 616.06 662.219 615.947 665.763 615.728C678.642 614.936 691.341 616.245 703.933 618.895C719.446 622.278 734.584 627.197 749.123 633.58C763.217 639.719 776.982 646.591 790.359 654.166C793.672 656.02 796.916 658.019 800.071 660.132C805.769 663.951 811.617 667.554 816.996 671.823C820.945 674.956 824.816 678.182 828.746 681.339C831.386 683.462 834.091 685.502 836.722 687.637C840.176 690.394 844.456 691.912 848.876 691.947C853.189 692.097 855.912 689.233 855.488 684.933C855.191 680.524 853.391 676.35 850.389 673.107C847.707 670.185 844.875 667.404 841.905 664.775C834.078 658.032 826.085 651.476 817.751 645.375C809.707 639.396 801.343 633.86 792.697 628.791Z" fill="url(#paint18_linear_2343_54)"/>
            <path d="M644.335 629.438C627.956 614.979 610.154 602.216 591.202 591.344C586.467 601.699 576.599 615.6 576.599 615.6C579.017 609.013 577.243 594.687 575.092 582.874C559.21 575.128 542.546 569.101 525.383 564.895C520.218 576.34 511.843 588.875 511.843 588.875C513.267 584.763 511.811 572.313 510.17 561.743C486.95 557.688 463.245 556.804 439.66 555.947L439.696 556.022C449.982 577.769 460.376 599.677 472.779 620.245C482.901 617.34 494.862 613.628 499.629 611.048C499.629 611.048 491.751 624.7 481.318 633.661C486.179 640.926 491.412 647.936 496.996 654.661C500.44 658.79 504.021 662.793 507.739 666.668C517.802 659.427 530.021 649.827 535.563 642.331C535.563 642.331 527.219 661.136 518.237 677.098C530.17 688.196 542.74 698.589 555.882 708.226C562.619 713.238 569.47 718.108 576.434 722.836C589.315 714.826 602.579 705.938 607.537 700.486C607.537 700.486 600.444 717.836 590.968 732.263C605.665 741.488 621.085 749.508 637.077 756.245C643.469 758.896 650.009 761.313 656.646 763.457C660.143 756.617 662.885 749.416 664.822 741.982C666.613 750.222 667.876 758.567 668.606 766.967C681.352 770.401 694.421 772.499 707.602 773.229C718.705 773.782 724.875 770.274 727.826 764.6C733.09 754.472 728.092 737.442 722.521 724.266C720.092 718.681 717.162 713.328 713.767 708.271C699.789 713.581 682.359 710.244 682.359 710.244L702.878 693.032C689.157 674.732 674.012 657.543 657.585 641.626C647.964 651.624 630.151 663.011 630.151 663.011C635.069 657.169 640.71 641.032 644.335 629.438Z" fill="#019961"/>
            <path d="M55.4616 461.519C54.6054 455.34 59.6078 449.563 65.4491 447.373C71.2904 445.183 77.7532 445.724 83.9679 446.288C96.2248 447.412 118.174 452.979 126.71 455.229C122.961 452.645 119.246 450.012 115.598 447.273C106.423 440.355 97.7294 432.823 89.576 424.727C85.6061 420.578 81.5471 416.515 77.88 412.095C76.1751 410.211 74.5555 408.257 72.9645 406.278C63.4112 410.807 52.4357 411.356 41.8395 411.158C33.4422 411.001 24.3065 410.13 18.1983 404.366C15.9318 402.225 14.1669 399.268 14.3866 396.156C14.7337 391.256 19.7569 387.955 24.5763 387.01C32.199 385.51 40.0408 387.893 47.2039 390.903C54.1159 393.808 66.3833 401.262 71.4854 404.425C69.9933 402.533 68.5178 400.628 67.0295 398.733C57.2865 385.701 48.828 371.755 41.7726 357.093C26.1996 362.544 6.97976 354.034 0.77632 338.692C0.179948 337.468 -0.0660613 336.104 0.0655574 334.75C0.785318 330.593 6.60259 330.118 10.6812 331.193C20.5502 333.792 34.8847 348.349 40.4044 354.275C33.5223 339.53 28.101 324.146 24.2181 308.344C20.9477 303.061 9.68929 286.984 7.36281 281.922C5.1623 277.137 3.63595 271.814 4.51391 266.62C5.39187 261.426 9.17958 256.469 14.3634 255.53C22.1285 254.122 28.6446 261.763 31.1248 269.25C34.3284 278.921 27.8191 301.323 25.7266 308.025C29.5844 323.211 34.8758 337.997 41.5297 352.182C41.3251 347.668 40.6015 330.75 40.9299 323.277C41.3115 314.614 44.4471 304.897 52.4147 301.47C56.1379 299.87 61.2617 300.372 63.211 303.926C64.7795 306.796 63.694 310.338 62.5109 313.385C57.1057 327.279 50.1782 340.531 41.8552 352.899C49.2778 368.618 58.3196 383.52 68.8341 397.364C70.4926 399.443 72.1331 401.538 73.8005 403.609C72.3167 396.613 66.4972 367.556 68.9976 353.714C70.1507 347.333 74.0855 339.755 80.5439 340.369C83.9642 340.693 86.7668 343.484 88.0414 346.674C89.3159 349.865 89.3248 353.409 89.1396 356.84C88.3052 372.302 82.1888 390.899 74.5091 404.481C76.1803 406.537 77.8829 408.567 79.6823 410.522C83.3441 414.874 87.3942 418.866 91.3499 422.943C99.4735 430.892 108.127 438.281 117.249 445.06C121.884 448.491 126.621 451.775 131.416 454.977C121.332 443.03 114.056 428.974 110.123 413.843C108.445 407.332 107.419 400.354 109.478 393.954C111.537 387.554 117.45 381.981 124.168 382.266C131.884 382.594 137.379 390.035 139.893 397.335C146.36 416.126 140.896 436.769 134.419 455.557L133.943 456.634C147.308 465.433 161.102 473.664 174.547 482.511C182.135 487.521 189.557 492.784 196.811 498.3C189.942 486.661 168.904 449.402 167.441 427.223C167.079 421.731 167.314 415.633 171.05 411.593C174.585 407.77 180.61 406.904 185.503 408.686C190.396 410.468 194.22 414.497 196.766 419.041C199.908 424.654 201.317 431.048 202.554 437.362C206.76 458.823 209.438 481.109 199.665 500.5C219.384 515.7 237.578 532.782 253.989 551.506C247.824 540.196 237.128 519.658 233.558 507.048C230.969 497.902 229.013 488.283 230.735 478.939C231.907 472.579 234.741 466.638 238.034 461.072C240.808 456.387 244.274 451.634 249.414 449.843C254.765 447.98 260.902 449.868 265.238 453.516C269.574 457.164 272.361 462.322 274.46 467.584C278.618 478.235 280.381 489.67 279.626 501.079C278.871 512.488 275.615 523.591 270.09 533.602C267.312 538.55 262.987 551.324 259.466 557.933C264.534 564.021 269.402 570.274 274.069 576.692C284.958 591.702 294.535 607.622 302.692 624.276C300.687 607.45 294.934 553.313 300.224 525.54C302.435 513.944 307.088 500.837 318.274 497.063C328.851 493.494 340.767 500.777 345.683 510.796C350.599 520.815 350.031 532.633 348.12 543.628C342.596 575.386 328.022 606.078 304.596 628.189C305.883 630.926 307.131 633.681 308.34 636.454C317.587 657.609 324.136 679.844 327.833 702.634L322.655 703.438C319.216 681.248 313.024 659.573 304.221 638.916L303.921 639.348C290.915 642.792 277.91 646.235 264.907 649.677C258.072 651.486 251.201 653.302 244.165 654.007C236.66 654.79 229.075 654.195 221.784 652.251C209.356 648.869 197.068 639.281 196.659 626.41C196.467 623.595 197.181 620.792 198.696 618.411C201.272 614.711 206.03 613.294 210.476 612.555C232.978 608.822 255.698 616.069 277.332 623.304C286.814 626.478 296.764 629.992 303.512 637.272C294.643 616.79 283.614 597.313 270.614 579.17C267.84 575.272 264.96 571.448 262.025 567.674C255.577 571.591 231.325 586.169 219.206 591.093C205.158 596.799 189.146 598.162 174.69 593.581C169.564 591.959 164.41 589.392 161.513 584.863C157.822 579.094 158.756 571.155 162.621 565.499C166.485 559.844 172.795 556.249 179.35 554.261C189.516 551.181 200.364 551.579 210.975 552.039C227.1 552.737 244.395 553.982 257.791 562.345C239.918 540.379 219.627 520.497 197.3 503.076C188.962 509.598 180.513 516.092 171.054 520.836C161.157 525.8 149.952 528.783 138.979 527.301C133.774 526.598 128.537 524.798 124.774 521.137C121.011 517.476 119.033 511.691 120.863 506.771C122.615 502.063 127.249 499.124 131.749 496.891C140.509 492.538 174.928 492.776 190.407 497.79C184.626 493.455 178.739 489.269 172.745 485.234C158.472 475.69 143.678 466.805 129.389 457.097C115.068 472.727 90.9406 479.53 70.4237 474.206C63.6992 472.453 56.4131 468.398 55.4616 461.519Z" fill="url(#paint19_linear_2343_54)"/>
            </g>
            <path d="M129.387 457.798C133.995 460.929 138.661 463.965 143.34 466.972V463.409C140.191 461.406 137.058 459.384 133.94 457.343L134.417 456.265C140.892 437.477 146.356 416.831 139.89 398.044C137.376 390.743 131.882 383.299 124.165 382.975C117.447 382.691 111.534 388.262 109.475 394.663C107.417 401.063 108.443 408.04 110.121 414.554C114.054 429.684 121.33 443.74 131.414 455.687C126.615 452.484 121.882 449.199 117.244 445.77C108.121 438.991 99.4683 431.602 91.3441 423.654C87.3891 419.576 83.3384 415.583 79.6766 411.23C77.8817 409.276 76.1767 407.248 74.5032 405.189C82.1829 391.609 88.2986 373.01 89.1338 357.551C89.3182 354.12 89.3101 350.579 88.0355 347.385C86.761 344.191 83.9591 341.404 80.538 341.079C74.0819 340.465 70.1471 348.043 68.9918 354.423C66.4906 368.265 72.3109 397.322 73.7947 404.32C72.1257 402.247 70.4869 400.153 68.8285 398.073C58.3135 384.23 49.2715 369.328 41.8494 353.608C50.1728 341.24 57.1008 327.988 62.5065 314.095C63.6896 311.046 64.7753 307.505 63.2068 304.638C61.2575 301.084 56.1313 300.579 52.4103 302.182C44.4427 305.609 41.3073 315.323 40.9257 323.988C40.5966 331.461 41.3194 348.379 41.5256 352.892C34.8715 338.706 29.5799 323.92 25.7222 308.734C27.8148 302.031 34.3241 279.635 31.1204 269.961C28.6402 262.469 22.1234 254.827 14.3597 256.237C9.17594 257.175 5.38973 262.133 4.51027 267.326C3.63081 272.519 5.15734 277.843 7.35936 282.631C9.68359 287.69 20.9448 303.772 24.2145 309.052C28.0974 324.854 33.5188 340.237 40.4009 354.982C34.8813 349.059 20.5467 334.499 10.6778 331.9C6.59913 330.825 0.78093 331.3 0.0619194 335.457C-0.0691873 336.811 0.176797 338.175 0.772682 339.398C6.97612 354.743 26.1954 363.253 41.7692 357.8C48.8246 372.463 57.283 386.409 67.026 399.443C68.5143 401.337 69.989 403.242 71.4817 405.132C66.3789 401.969 54.1115 394.515 47.2003 391.61C40.0372 388.6 32.1978 386.218 24.5729 387.717C19.7535 388.663 14.7301 391.967 14.383 396.863C14.164 399.975 15.9282 402.935 18.1947 405.074C24.3022 410.837 33.4409 411.707 41.8336 411.864C52.4321 412.062 63.4078 411.514 72.9611 406.986C74.5513 408.964 76.1714 410.917 77.8764 412.801C81.5434 417.225 85.6026 421.286 89.5726 425.436C97.7264 433.531 106.42 441.062 115.594 447.98C119.24 450.721 122.959 453.352 126.705 455.938C118.169 453.689 96.2205 448.116 83.9635 446.997C77.7518 446.428 71.2928 445.89 65.4447 448.08C59.5967 450.27 54.601 456.047 55.4573 462.226C56.4087 469.105 63.6949 473.163 70.4171 474.906C90.9386 480.231 115.069 473.428 129.387 457.798Z" fill="url(#paint20_linear_2343_54)"/>
            <path d="M532.268 532.557C519.902 538.915 510.429 549.694 502.45 561.113C496.592 565.889 490.997 570.978 485.688 576.357C473.092 589.133 460.332 603.566 456.055 621.399C461.335 584.15 471.041 547.921 488.584 514.06C492.821 505.878 497.424 497.896 502.297 490.083C502.324 490.524 502.36 490.766 502.36 490.766C506.019 491.119 510.332 487.783 513.859 486.747C517.955 485.543 521.292 482.605 524.312 479.587C531.278 472.629 537.733 463.291 535.621 453.674C504.751 464.424 502.257 483.163 502.264 488.985C492.404 504.6 483.874 521.015 476.763 538.058C477.582 523.132 479.786 508.313 483.347 493.794C483.61 493.394 502.891 464.157 505.689 450.334C507.747 440.16 505.942 429.647 504.135 419.426C492.12 426.169 484.624 439.253 481.929 452.763C479.332 465.779 480.694 479.244 483.063 492.319C479.144 507.894 476.787 523.821 476.028 539.864C475.752 540.552 475.467 541.235 475.196 541.924C466.349 564.327 460.46 587.754 456.707 611.52C454.638 624.621 453.191 637.808 452.1 651.021C451.499 626.388 449.275 601.822 445.444 577.481C443.688 566.347 441.508 555.3 439.192 544.278C439.202 544.256 439.21 544.232 439.213 544.208C440.009 535.939 441.594 527.765 443.947 519.798C452.356 515.354 462.035 499.419 464.778 490.448C467.552 481.388 467.735 471.759 467.597 462.288C459.844 468.416 453.777 476.457 449.188 485.207C443.076 496.863 443.407 514 443.629 518.693C441.288 526.411 439.666 534.329 438.785 542.346C435.864 528.527 432.759 514.743 430.034 500.88C429.857 499.98 429.689 499.073 429.516 498.168C429.539 498.115 429.545 498.055 429.532 497.998C429.247 496.691 429.007 495.38 428.791 494.069C428.797 494.026 428.792 493.983 428.778 493.943L428.759 493.887C425.03 470.661 432.272 447.09 439.381 425.102C441.33 419.078 443.433 413.111 445.688 407.199C458.847 400.26 468.116 385.784 473.324 371.851C478.605 357.723 479.941 342.433 480.106 327.352C469.786 331.164 464.122 341.738 458.089 350.938C437.752 381.953 444.078 404.274 445.034 407.169C442.622 413.499 440.385 419.895 438.32 426.355C432.307 445.218 426.272 465.173 427.223 485.09C425.342 473.283 423.969 461.446 423.175 449.546C423.19 449.494 423.192 449.439 423.179 449.386L423.158 449.311C422.544 440.069 422.29 430.783 422.396 421.451C422.613 404.68 423.777 387.956 425.351 371.267C426.878 371.068 428.313 370.422 429.474 369.41C435.322 364.977 436.522 349.349 437.246 342.721C438.749 328.968 438.566 315.083 436.7 301.375C424.142 315.751 418.007 335.254 419.156 354.228C419.531 360.399 419.981 370.673 424.723 371.246C423.454 384.718 422.45 398.212 421.996 411.739C421.607 423.323 421.721 434.868 422.337 446.375C415.172 422.255 397.97 404.282 380.983 386.272C382.048 379.486 376.935 365.672 373.336 359.876C369.721 354.059 364.768 349.214 359.84 344.452C352.899 337.743 345.913 331.081 338.881 324.467C333.04 336.149 337.585 349.739 343.362 361.455C350.432 375.79 374.577 384.291 379.91 386.02C389.491 396.171 399.174 406.292 407.117 417.492C399.337 414.324 391.275 411.898 383.039 410.245C383.137 410.143 383.242 410.047 383.333 409.941C383.333 409.941 364.841 384.181 319.06 405.49C325.761 416.313 340.165 419.163 352.898 419.344C358.417 419.423 364.158 419.139 369.043 416.57C372.905 414.538 379.116 413.699 382.492 410.772C391.159 412.483 399.634 415.05 407.792 418.437C414.28 427.754 419.536 437.834 422.507 449.307C423.315 462.434 424.844 475.507 427.085 488.467C427.173 488.961 427.271 489.454 427.358 489.951C424.211 482.019 419.34 474.885 413.098 469.066C411.233 466.083 402.59 452.627 396.62 449.687C389.893 446.375 382.262 445.528 374.808 444.734C370.338 444.255 365.869 443.778 361.401 443.302C370.585 448.184 374.101 460.115 383.044 465.425C391.022 470.161 403.723 471.636 412.924 469.765C419.928 476.338 425.136 484.592 428.055 493.743C432.451 517.591 438.364 541.136 442.692 565.002C447.432 591.161 450.309 617.624 451.302 644.191C451.385 646.365 451.452 648.533 451.504 650.704C447.328 624.985 439.536 599.986 428.359 576.449C422.492 564.208 415.827 552.365 408.407 540.999C407.266 539.243 406.108 537.497 404.933 535.763L405.042 534.96C402.451 509.948 385.12 487.022 361.761 477.705C359.933 496.394 365.048 516.906 379.659 528.703C381.54 530.316 383.696 531.577 386.024 532.426C391.759 534.307 398.644 532.392 403.793 535.2C405.449 537.635 407.076 540.087 408.674 542.558C416.01 553.901 422.588 565.717 428.366 577.927C439.876 602.483 447.707 628.599 451.608 655.436C452.034 680.955 450.743 706.475 447.745 731.822C447.696 732.222 448.321 732.277 448.369 731.877C451.305 706.962 452.59 681.88 452.217 656.796C452.256 656.748 452.279 656.691 452.285 656.63C453.142 645.246 454.31 633.914 455.871 622.677C455.916 622.715 455.97 622.741 456.028 622.752C456.086 622.763 456.146 622.759 456.202 622.74C456.258 622.721 456.308 622.689 456.348 622.646C456.388 622.602 456.417 622.55 456.431 622.492C460.587 603.548 474.65 588.102 488.084 574.839C492.492 570.491 497.105 566.363 501.873 562.426C503.859 562.911 515.695 565.724 520.837 565.314C533.799 564.274 544.814 555.846 554.996 547.76L573.413 533.135C561.546 524.975 545.08 525.969 532.268 532.557Z" fill="url(#paint21_linear_2343_54)"/>
            </g>
            <defs>
            <linearGradient id="paint0_linear_2343_54" x1="278.478" y1="763.108" x2="278.478" y2="-6.4682" gradientUnits="userSpaceOnUse">
            <stop stop-color="#D8EFD1"/>
            <stop offset="0.483" stop-color="#E5F3DD"/>
            <stop offset="1" stop-color="#EFF7E7"/>
            </linearGradient>
            <linearGradient id="paint1_linear_2343_54" x1="427.742" y1="1277.13" x2="432.158" y2="988.742" gradientUnits="userSpaceOnUse">
            <stop offset="0.559" stop-color="#DAF7B1"/>
            <stop offset="1" stop-color="#B3EF9E"/>
            </linearGradient>
            <linearGradient id="paint2_linear_2343_54" x1="120.627" y1="301.388" x2="120.627" y2="114.365" gradientUnits="userSpaceOnUse">
            <stop offset="0.477" stop-color="#EFF7E7" stop-opacity="0.6"/>
            <stop offset="0.782" stop-color="white"/>
            </linearGradient>
            <linearGradient id="paint3_linear_2343_54" x1="35.6385" y1="171.508" x2="35.6385" y2="167.492" gradientUnits="userSpaceOnUse">
            <stop offset="0.477" stop-color="#EFF7E7" stop-opacity="0.6"/>
            <stop offset="0.782" stop-color="white"/>
            </linearGradient>
            <linearGradient id="paint4_linear_2343_54" x1="387.326" y1="763.112" x2="387.326" y2="439.953" gradientUnits="userSpaceOnUse">
            <stop stop-color="#B5D653"/>
            <stop offset="0.995" stop-color="#019961"/>
            </linearGradient>
            <linearGradient id="paint5_linear_2343_54" x1="759.74" y1="303.17" x2="733.394" y2="380.536" gradientUnits="userSpaceOnUse">
            <stop stop-color="#B5D653"/>
            <stop offset="0.995" stop-color="#019961"/>
            </linearGradient>
            <linearGradient id="paint6_linear_2343_54" x1="589.895" y1="458.675" x2="675.349" y2="485.124" gradientUnits="userSpaceOnUse">
            <stop stop-color="#B5D653"/>
            <stop offset="0.995" stop-color="#019961"/>
            </linearGradient>
            <linearGradient id="paint7_linear_2343_54" x1="731.441" y1="178.188" x2="731.441" y2="-52.6324" gradientUnits="userSpaceOnUse">
            <stop stop-color="#B5D653"/>
            <stop offset="0.995" stop-color="#019961"/>
            </linearGradient>
            <linearGradient id="paint8_linear_2343_54" x1="-834.201" y1="-865.958" x2="-834.201" y2="-1024.3" gradientUnits="userSpaceOnUse">
            <stop stop-color="#9DEA59"/>
            <stop offset="1" stop-color="#D8FF59"/>
            </linearGradient>
            <linearGradient id="paint9_linear_2343_54" x1="293.886" y1="174.253" x2="293.886" y2="-7.19126" gradientUnits="userSpaceOnUse">
            <stop stop-color="#B5D653"/>
            <stop offset="0.995" stop-color="#019961"/>
            </linearGradient>
            <linearGradient id="paint10_linear_2343_54" x1="263.158" y1="59.6876" x2="263.158" y2="-131.147" gradientUnits="userSpaceOnUse">
            <stop stop-color="#B5D653"/>
            <stop offset="0.995" stop-color="#019961"/>
            </linearGradient>
            <linearGradient id="paint11_linear_2343_54" x1="449.034" y1="498.071" x2="449.034" y2="-111.908" gradientUnits="userSpaceOnUse">
            <stop/>
            <stop offset="0.199" stop-color="#151515"/>
            <stop offset="0.428" stop-color="#252525"/>
            <stop offset="0.681" stop-color="#2F2F2F"/>
            <stop offset="1" stop-color="#333333"/>
            </linearGradient>
            <linearGradient id="paint12_linear_2343_54" x1="450.104" y1="245.772" x2="450.104" y2="91.7609" gradientUnits="userSpaceOnUse">
            <stop stop-color="#B5D653"/>
            <stop offset="0.995" stop-color="#019961"/>
            </linearGradient>
            <linearGradient id="paint13_linear_2343_54" x1="805.909" y1="490.629" x2="856.594" y2="510.459" gradientUnits="userSpaceOnUse">
            <stop stop-color="#B5D653"/>
            <stop offset="0.995" stop-color="#019961"/>
            </linearGradient>
            <linearGradient id="paint14_linear_2343_54" x1="-113.145" y1="-424.843" x2="-113.145" y2="-618.67" gradientUnits="userSpaceOnUse">
            <stop stop-color="#9DEA59"/>
            <stop offset="1" stop-color="#D8FF59"/>
            </linearGradient>
            <linearGradient id="paint15_linear_2343_54" x1="910.096" y1="858.616" x2="910.448" y2="665.776" gradientUnits="userSpaceOnUse">
            <stop stop-color="#9DEA59"/>
            <stop offset="1" stop-color="#D8FF59"/>
            </linearGradient>
            <linearGradient id="paint16_linear_2343_54" x1="-9791.65" y1="1816.14" x2="-9916.84" y2="1746.47" gradientUnits="userSpaceOnUse">
            <stop stop-color="#9DEA59"/>
            <stop offset="1" stop-color="#D8FF59"/>
            </linearGradient>
            <linearGradient id="paint17_linear_2343_54" x1="-9234.37" y1="529.299" x2="-9344.3" y2="509.469" gradientUnits="userSpaceOnUse">
            <stop stop-color="#9DEA59"/>
            <stop offset="1" stop-color="#D8FF59"/>
            </linearGradient>
            <linearGradient id="paint18_linear_2343_54" x1="-9659.08" y1="5656.93" x2="-9676.92" y2="5514.24" gradientUnits="userSpaceOnUse">
            <stop stop-color="#9DEA59"/>
            <stop offset="1" stop-color="#D8FF59"/>
            </linearGradient>
            <linearGradient id="paint19_linear_2343_54" x1="202.38" y1="217.723" x2="402.508" y2="707.992" gradientUnits="userSpaceOnUse">
            <stop stop-color="#B5D653"/>
            <stop offset="0.995" stop-color="#019961"/>
            </linearGradient>
            <linearGradient id="paint20_linear_2343_54" x1="158.388" y1="229.151" x2="418.825" y2="671.135" gradientUnits="userSpaceOnUse">
            <stop stop-color="#B5D653"/>
            <stop offset="0.995" stop-color="#019961"/>
            </linearGradient>
            <linearGradient id="paint21_linear_2343_54" x1="446.236" y1="361.252" x2="446.236" y2="586.549" gradientUnits="userSpaceOnUse">
            <stop stop-color="#B5D653"/>
            <stop offset="0.995" stop-color="#019961"/>
            </linearGradient>
            <clipPath id="clip0_2343_54">
            <path d="M0 0H779C801.091 0 819 17.9086 819 40V739H0V0Z" fill="white"/>
            </clipPath>
            </defs>
        </svg>